<svg xmlns="http://www.w3.org/2000/svg" id="svg2" width="22" height="22" version="1.1">
 <g id="22-22-start-here-kde">
  <rect id="rect4161" width="22" height="22" x="0" y="0" style="opacity:0.001;fill:#000000;fill-opacity:1;stroke:none;stroke-width:4;stroke-linecap:round;stroke-linejoin:miter;stroke-miterlimit:4;stroke-dasharray:none;stroke-dashoffset:0;stroke-opacity:1"/>
  <path id="path4157" d="M 11 3 A 8 8 0 0 0 3 11 A 8 8 0 0 0 11 19 A 8 8 0 0 0 16 17.236328 L 16 19 L 19 19 L 19 11 L 19 3 L 16 3 L 16 4.7558594 A 8 8 0 0 0 11 3 z M 11 6 A 5 5 0 0 1 16 11 A 5 5 0 0 1 11 16 A 5 5 0 0 1 6 11 A 5 5 0 0 1 11 6 z" style="opacity:1;fill:#cfd8dc;fill-opacity:1;stroke:none;stroke-width:4;stroke-linecap:round;stroke-linejoin:miter;stroke-miterlimit:4;stroke-dasharray:none;stroke-dashoffset:0;stroke-opacity:1"/>
 </g>
 <g id="start-here-kde">
  <rect id="rect4177" width="32" height="32" x="22" y="-10" style="opacity:0.001;fill:#000000;fill-opacity:1;stroke:none;stroke-width:4;stroke-linecap:round;stroke-linejoin:miter;stroke-miterlimit:4;stroke-dasharray:none;stroke-dashoffset:0;stroke-opacity:1"/>
  <path id="path4183" d="M 38 -6 A 12 12 0 0 0 26 6 A 12 12 0 0 0 38 18 A 12 12 0 0 0 45 15.734375 L 45 18 L 50 18 L 50 6 L 50 -6 L 45 -6 L 45 -3.7285156 A 12 12 0 0 0 38 -6 z M 38 -1 A 7 7 0 0 1 45 6 A 7 7 0 0 1 38 13 A 7 7 0 0 1 31 6 A 7 7 0 0 1 38 -1 z" style="opacity:1;fill:#cfd8dc;fill-opacity:1;stroke:none;stroke-width:4;stroke-linecap:round;stroke-linejoin:miter;stroke-miterlimit:4;stroke-dasharray:none;stroke-dashoffset:0;stroke-opacity:1"/>
 </g>
</svg>
