<svg xmlns="http://www.w3.org/2000/svg" xmlns:xlink="http://www.w3.org/1999/xlink" id="svg3642" width="205" height="210.939" version="1">
 <defs id="defs3644">
  <linearGradient id="linearGradient4465">
   <stop id="stop4467" style="stop-color:#000000;stop-opacity:0.50980395" offset="0"/>
   <stop id="stop4469" style="stop-color:#000000;stop-opacity:0;" offset="1"/>
  </linearGradient>
  <radialGradient id="radialGradient3382" cx="984" cy="905.362" r="8.5" fx="984" fy="905.362" gradientTransform="matrix(1.7317915e-5,1.9999983,-1.9999805,1.731776e-5,1998.6894,-1868.075)" gradientUnits="userSpaceOnUse" xlink:href="#linearGradient4465"/>
  <radialGradient id="radialGradient4255" cx="982.909" cy="906.453" r="8.5" fx="982.909" fy="906.453" gradientTransform="matrix(2.0000264,2.3796519e-5,-2.3796124e-5,1.9999933,-1777.8226,-1762.9844)" gradientUnits="userSpaceOnUse" xlink:href="#linearGradient4465"/>
  <linearGradient id="linearGradient4259" x1="83.6" x2="83.6" y1="-969.362" y2="-952.362" gradientTransform="matrix(0.71428571,0,0,1,-317.71429,1250.3622)" gradientUnits="userSpaceOnUse" xlink:href="#linearGradient4465"/>
  <radialGradient id="radialGradient4263" cx="984" cy="905.362" r="8.5" fx="984" fy="905.362" gradientTransform="matrix(-2.000005,2.727468e-6,-2.7274042e-6,-1.999959,2106.0074,1910.6235)" gradientUnits="userSpaceOnUse" xlink:href="#linearGradient4465"/>
  <linearGradient id="linearGradient4271" x1="83.6" x2="83.6" y1="-969.362" y2="-952.362" gradientTransform="matrix(0.71428571,0,0,1,-317.71429,1250.3622)" gradientUnits="userSpaceOnUse" xlink:href="#linearGradient4465"/>
  <radialGradient id="radialGradient4275" cx="984" cy="905.362" r="8.5" fx="984" fy="905.362" gradientTransform="matrix(8.0916064e-7,-2.000009,1.9999882,8.0915096e-7,-1672.7142,2017.9472)" gradientUnits="userSpaceOnUse" xlink:href="#linearGradient4465"/>
  <linearGradient id="linearGradient4283" x1="83.6" x2="83.6" y1="-969.362" y2="-952.362" gradientTransform="matrix(0.71428571,0,0,1,-317.71429,1250.3622)" gradientUnits="userSpaceOnUse" xlink:href="#linearGradient4465"/>
  <linearGradient id="linearGradient4452" x1="-260" x2="-260" y1="281" y2="298" gradientUnits="userSpaceOnUse" xlink:href="#linearGradient4465"/>
  <linearGradient id="linearGradient4326" x1="83.6" x2="83.6" y1="-969.362" y2="-957.362" gradientTransform="matrix(0.7142856,0,0,1,189.28578,712.3622)" gradientUnits="userSpaceOnUse" xlink:href="#linearGradient4465"/>
  <radialGradient id="radialGradient4328" cx="984" cy="905.362" r="8.5" fx="984" fy="905.362" gradientTransform="matrix(-1.845693e-5,1.4117731,-1.411746,-1.8456574e-5,1528.1598,-1082.1681)" gradientUnits="userSpaceOnUse" xlink:href="#linearGradient4465"/>
  <linearGradient id="linearGradient4330" x1="83.6" x2="83.6" y1="-969.362" y2="-957.362" gradientTransform="matrix(0.71428571,0,0,1,189.28573,1276.3622)" gradientUnits="userSpaceOnUse" xlink:href="#linearGradient4465"/>
  <radialGradient id="radialGradient4332" cx="982.909" cy="906.453" r="8.5" fx="982.909" fy="906.453" gradientTransform="matrix(1.4117614,2.0244477e-6,-2.0244433e-6,1.4117574,-1137.6313,-1022.6939)" gradientUnits="userSpaceOnUse" xlink:href="#linearGradient4465"/>
  <linearGradient id="linearGradient4334" x1="-260" x2="-260" y1="281" y2="293" gradientTransform="translate(0,-30.999907)" gradientUnits="userSpaceOnUse" xlink:href="#linearGradient4465"/>
  <radialGradient id="radialGradient4336" cx="984" cy="905.362" r="8.5" fx="984" fy="905.362" gradientTransform="matrix(-1.411789,7.7476025e-6,-7.7474229e-6,-1.4117563,1589.2075,1585.1432)" gradientUnits="userSpaceOnUse" xlink:href="#linearGradient4465"/>
  <linearGradient id="linearGradient4338" x1="83.6" x2="83.6" y1="-969.362" y2="-957.362" gradientTransform="matrix(0.71428571,0,0,0.99999985,-317.71429,769.36199)" gradientUnits="userSpaceOnUse" xlink:href="#linearGradient4465"/>
  <radialGradient id="radialGradient4340" cx="984" cy="905.362" r="8.5" fx="984" fy="905.362" gradientTransform="matrix(-2.0538847e-5,-1.4117565,1.4117782,-2.0539163e-5,-1078.1502,1646.1869)" gradientUnits="userSpaceOnUse" xlink:href="#linearGradient4465"/>
 </defs>
 <rect id="center" style="opacity:1;fill:#263238;fill-opacity:1;stroke:none" width="50" height="50" x="17" y="49.94"/>
 <g id="topleft" transform="translate(-173.00001,-209.06095)">
  <path id="path4428" style="opacity:1;fill:#263238;fill-opacity:1;stroke:none" d="m 190.00001,251.99982 0,7 -7,0 0,-2 c 0,-2.77 2.23,-5 5,-5 z"/>
 </g>
 <g id="left" transform="translate(-173.00001,-209.06095)">
  <path id="path4418" style="opacity:1;fill:#263238;fill-opacity:1;stroke:none" d="m 183.00002,258.99981 0,50 7,10e-6 0,-50 z"/>
 </g>
 <g id="right" transform="translate(-173.00001,-209.06095)">
  <path id="path4396" style="opacity:1;fill:#263238;fill-opacity:1;stroke:none" d="m 247,258.99982 0,50 -7,10e-6 0,-50 z"/>
 </g>
 <g id="bottomleft" transform="translate(-173.00001,-209.06095)">
  <path id="path4414" style="opacity:1;fill:#263238;fill-opacity:1;stroke:none" d="m 190.00001,315.99991 0,-7 -7,0 0,2 c 0,2.77 2.23,5 5,5 z"/>
 </g>
 <g id="bottom" transform="translate(-173.00001,-209.06095)">
  <path id="path4404" style="opacity:1;fill:#263238;fill-opacity:1;stroke:none" d="m 189.99998,315.99995 50.00002,0 0,-7 -50.00001,0 z"/>
 </g>
 <g id="bottomright" transform="translate(-173.00001,-209.06095)">
  <path id="path4392" style="opacity:1;fill:#263238;fill-opacity:1;stroke:none" d="m 240,315.99991 0,-7 7,0 0,2 c 0,2.77 -2.23,5 -5,5 z"/>
 </g>
 <g id="topright" transform="translate(-173.00001,-209.06095)">
  <path id="path4378" style="opacity:1;fill:#263238;fill-opacity:1;stroke:none" d="m 240,251.99982 0,7 7,0 0,-2 c 0,-2.77 -2.23,-5 -5,-5 z"/>
 </g>
 <g id="top" transform="translate(-173.00001,-209.06095)">
  <path id="path4382" style="opacity:1;fill:#263238;fill-opacity:1;stroke:none" d="m 189.99998,251.99982 50.00002,0 0,7 -50.00001,0 z"/>
 </g>
 <path id="shadow-topleft" style="opacity:1;fill:url(#radialGradient4275);fill-opacity:1;stroke:none" d="m 121,49.93909 10,0 0,-2 c 0,-2.77 2.23,-5 5,-5 l 2,0 0,-10 -17,0 z"/>
 <g id="shadow-left" transform="matrix(-1,0,0,1,419,-207.06091)">
  <rect id="rect4267" style="opacity:1;fill:url(#linearGradient4271);fill-opacity:1;stroke:none" width="50" height="10" x="-307" y="288" transform="matrix(0,-1,1,0,0,0)"/>
  <rect id="rect4269" style="fill:#3498db;fill-opacity:0" width="7" height="1" x="278" y="257" transform="translate(3,2)"/>
 </g>
 <path id="shadow-bottomright" style="opacity:1;fill:url(#radialGradient3382);fill-opacity:1;stroke:none" d="m 205,99.93909 -10,0 0,2 c 0,2.77 -2.23,5 -5,5 l -2,0 0,10 17,0 z"/>
 <g id="shadow-bottom" transform="matrix(0,1,-1,0,445,-181.06091)">
  <rect id="rect3389" style="opacity:1;fill:url(#linearGradient4259);fill-opacity:1;stroke:none" width="50" height="10" x="-307" y="288" transform="matrix(0,-1,1,0,0,0)"/>
  <rect id="rect4241" style="fill:#3498db;fill-opacity:0" width="7" height="1" x="278" y="257" transform="translate(3,2)"/>
 </g>
 <g id="shadow-right" transform="translate(-93,-207.06091)">
  <rect id="rect4251" style="opacity:1;fill:url(#linearGradient4452);fill-opacity:1;stroke:none" width="50" height="10" x="-307" y="288" transform="matrix(0,-1,1,0,0,0)"/>
  <rect id="rect4253" style="fill:#3498db;fill-opacity:0" width="7" height="1" x="278" y="257" transform="translate(3,2)"/>
 </g>
 <g id="shadow-top" transform="matrix(0,-1,-1,0,445,330.93909)">
  <rect id="rect4279" style="opacity:1;fill:url(#linearGradient4283);fill-opacity:1;stroke:none" width="50" height="10" x="-307" y="288" transform="matrix(0,-1,1,0,0,0)"/>
  <rect id="rect4281" style="fill:#3498db;fill-opacity:0" width="7" height="1" x="278" y="257" transform="translate(3,2)"/>
 </g>
 <path id="shadow-topright" style="opacity:1;fill:url(#radialGradient4255);fill-opacity:1;stroke:none" d="m 188,32.93909 0,10 2,0 c 2.77,0 5,2.23 5,5 l 0,2 10,0 0,-17 z"/>
 <g id="shadow-center" style="fill:#000000;fill-opacity:0" transform="matrix(0.31570315,0,0,0.31570315,-251.27186,5.27591)">
  <path id="path3642" style="fill:#000000;fill-opacity:0;stroke:none" d="m -6.0000004,-7.998957 0,62 62.0000004,0 0,-62 -62.0000004,0 z"/>
 </g>
 <path id="shadow-bottomleft" style="opacity:1;fill:url(#radialGradient4263);fill-opacity:1;stroke:none" d="m 138,116.93909 0,-10 -2,0 c -2.77,0 -5,-2.23 -5,-5 l 0,-2 -10,0 0,17 z"/>
 <rect id="hint-tile-center" style="opacity:1;fill:#ff6600;fill-opacity:1;stroke:none" width="5" height="5" x="0" y="-.06"/>
 <rect id="hint-top-margin" style="fill:#ff00ff;fill-opacity:1;stroke:none" width="4" height="17" x="39" y="32.94"/>
 <rect id="hint-bottom-margin" style="fill:#ff00ff;fill-opacity:1;stroke:none" width="4" height="17" x="39" y="99.94"/>
 <rect id="hint-right-margin" style="fill:#ff00ff;fill-opacity:1;stroke:none" width="4" height="17" x="71.94" y="-84" transform="matrix(0,1,-1,0,0,0)"/>
 <rect id="hint-left-margin" style="fill:#ff00ff;fill-opacity:1;stroke:none" width="4" height="17" x="71.94" y="-17" transform="matrix(0,1,-1,0,0,0)"/>
 <rect id="shadow-hint-top-margin" style="fill:#ff00ff;fill-opacity:1;stroke:none" width="4" height="17" x="161" y="32.94"/>
 <rect id="shadow-hint-bottom-margin" style="fill:#ff00ff;fill-opacity:1;stroke:none" width="4" height="17" x="161" y="99.94"/>
 <rect id="shadow-hint-right-margin" style="fill:#ff00ff;fill-opacity:1;stroke:none" width="4" height="17" x="71.94" y="-205" transform="matrix(0,1,-1,0,0,0)"/>
 <rect id="shadow-hint-left-margin" style="fill:#ff00ff;fill-opacity:1;stroke:none" width="4" height="17" x="71.94" y="-138" transform="matrix(0,1,-1,0,0,0)"/>
</svg>
