<svg xmlns="http://www.w3.org/2000/svg" id="svg2" width="30" height="30" version="1.1" viewBox="0 0 30 30">
 <rect id="hint-tile-center" style="opacity:1;fill:#ff2a2a;fill-opacity:1;stroke:none" width="1" height="1" x="0" y="3"/>
 <rect id="hint-bar-size" style="opacity:1;fill:#ff2a2a;fill-opacity:1;stroke:none" width="3" height="3" x="3" y="0"/>
 <path id="bar-inactive-bottomright" style="opacity:1;fill:#2d4c4f;fill-opacity:1;stroke:none" d="m 14,17 0,1 1,0 0,-1 z"/>
 <path id="bar-inactive-right" style="opacity:1;fill:#2d4c4f;fill-opacity:1;stroke:none" d="m 14,15 0,1 1,0 0,-1 -1,0 z"/>
 <path id="bar-inactive-topright" style="opacity:1;fill:#2d4c4f;fill-opacity:1;stroke:none" d="m 14,13 0,1 1,0 0,-1 z"/>
 <path id="bar-inactive-bottomleft" style="opacity:1;fill:#2d4c4f;fill-opacity:1;stroke:none" d="m 10,17 0,1 1,0 0,-1 z"/>
 <path id="bar-inactive-left" style="opacity:1;fill:#2d4c4f;fill-opacity:1;stroke:none" d="m 10,15 0,1 1,0 0,-1 -1,0 z"/>
 <path id="bar-inactive-topleft" style="opacity:1;fill:#2d4c4f;fill-opacity:1;stroke:none" d="m 11,13 -1,0 0,1 1,0 z"/>
 <path id="bar-inactive-bottom" style="opacity:1;fill:#2d4c4f;fill-opacity:1;stroke:none" d="m 12,17 0,1 1,0 0,-1 -1,0 z"/>
 <path id="bar-inactive-center" style="opacity:1;fill:#2d4c4f;fill-opacity:1;stroke:none" d="m 13,15 -1,0 0,1 1,0 0,-1 z"/>
 <path id="bar-inactive-top" style="opacity:1;fill:#2d4c4f;fill-opacity:1;stroke:none" d="m 12,13 0,1 1,0 0,-1 -1,0 z"/>
 <path id="bar-active-bottomright" style="opacity:1;fill:#4db6ac;fill-opacity:1;stroke:none" d="m 14,26 0,1 1,0 0,-1 z"/>
 <path id="bar-active-right" style="opacity:1;fill:#4db6ac;fill-opacity:1;stroke:none" d="m 14,24 0,1 1,0 0,-1 -1,0 z"/>
 <path id="bar-active-topright" style="opacity:1;fill:#4db6ac;fill-opacity:1;stroke:none" d="m 14,22 0,1 1,0 0,-1 z"/>
 <path id="bar-active-bottomleft" style="opacity:1;fill:#4db6ac;fill-opacity:1;stroke:none" d="m 10,26 0,1 1,0 0,-1 z"/>
 <path id="bar-active-left" style="opacity:1;fill:#4db6ac;fill-opacity:1;stroke:none" d="m 10,24 0,1 1,0 0,-1 -1,0 z"/>
 <path id="bar-active-topleft" style="opacity:1;fill:#4db6ac;fill-opacity:1;stroke:none" d="m 11,22 -1,0 0,1 1,0 z"/>
 <path id="bar-active-bottom" style="opacity:1;fill:#4db6ac;fill-opacity:1;stroke:none" d="m 12,26 0,1 1,0 0,-1 -1,0 z"/>
 <path id="bar-active-center" style="opacity:1;fill:#4db6ac;fill-opacity:1;stroke:none" d="m 13,24 -1,0 0,1 1,0 0,-1 z"/>
 <path id="bar-active-top" style="opacity:1;fill:#4db6ac;fill-opacity:1;stroke:none" d="m 12,22 0,1 1,0 0,-1 -1,0 z"/>
 <rect id="hint-stretch-borders" style="opacity:1;fill:#ff2a2a;fill-opacity:1;stroke:none" width="1" height="1" x="0" y="8"/>
 <rect id="hint-bar-stretch" style="opacity:1;fill:#ff2a2a;fill-opacity:1;stroke:none" width="1" height="1" x="0" y="13"/>
</svg>
