<svg xmlns="http://www.w3.org/2000/svg" id="svg2" width="208" height="208" version="1">
 <g id="MinuteHand">
  <path id="rect4187" d="m 249,137 10,0 0,72 -10,0 z" style="opacity:0.00100002;fill:#000000;fill-opacity:1;fill-rule:nonzero;stroke:none;stroke-width:2;stroke-linecap:round;stroke-linejoin:round;stroke-miterlimit:4;stroke-dasharray:none;stroke-opacity:1"/>
  <path id="HourHand3" d="M 252.00392,206 250,142 c 0,-2.20914 1.79088,-4 4,-4 2.20912,0 4,1.79086 4,4 l -2.00392,64 c 0,0 0.004,2 -1.99608,2 -2,0 -1.99608,-2 -1.99608,-2 z" style="fill:#5e5e5e"/>
 </g>
 <g id="HourHand">
  <path id="rect4189" d="m 266,137 10,0 0,52 -10,0 z" style="opacity:0.00100002;fill:#000000;fill-opacity:1;fill-rule:nonzero;stroke:none;stroke-width:2;stroke-linecap:round;stroke-linejoin:round;stroke-miterlimit:4;stroke-dasharray:none;stroke-opacity:1"/>
  <path id="MinuteHand3" d="m 269,186 -2.03125,-44 c 0,-2.20914 1.79088,-4 4,-4 2.20912,0 4,1.79086 4,4 -5.1e-4,0.10431 -0.005,0.20855 -0.0138,0.3125 L 273,186 c 0,0 -0.0312,2 -2.03125,2 -2,0 -1.96875,-2 -1.96875,-2 z" style="fill:#3f3f3f"/>
 </g>
 <g id="SecondHand">
  <path id="rect4208" d="m 283,137 6,0 0,70 -6,0 z" style="opacity:0.00100002;fill:#000000;fill-opacity:1;fill-rule:nonzero;stroke:none;stroke-width:2;stroke-linecap:round;stroke-linejoin:round;stroke-miterlimit:4;stroke-dasharray:none;stroke-opacity:1"/>
  <g id="g4210" transform="translate(-4.0644,-2.00021)">
   <path id="rect6212" d="m 291.0644,141.00021 0,65.9994 c 0,0 0,1.0006 -1,1.0006 -1,0 -1,-1 -1,-1 l 0,-65.99981 z" style="fill:#ff9800;fill-opacity:1;stroke:none"/>
   <path id="path6214" d="m 289.06331,143.73103 c -0.95585,-0.55323 -1.28286,-1.77611 -0.73003,-2.73207 0.55293,-0.95613 1.77614,-1.28298 2.73218,-0.7301 0.95583,0.55322 1.28286,1.77611 0.72992,2.73224 -0.55283,0.95596 -1.77605,1.2828 -2.73207,0.72993 z" style="fill:#ff9800;fill-opacity:1;stroke:none"/>
  </g>
 </g>
 <g id="ClockFace">
  <rect id="rect4224" width="180" height="180" x="-202" y="-194" rx="90" ry="90" transform="matrix(0,-1,-1,0,0,0)" style="opacity:0.02;fill:#000000;fill-opacity:1"/>
  <rect id="rect4226" width="180" height="180" x="-201" y="-194" rx="90" ry="90" transform="matrix(0,-1,-1,0,0,0)" style="opacity:0.02;fill:#000000;fill-opacity:1"/>
  <rect id="rect4228" width="180" height="180" x="-200" y="-194" rx="90" ry="90" transform="matrix(0,-1,-1,0,0,0)" style="opacity:0.02;fill:#000000;fill-opacity:1"/>
  <rect id="rect4230" width="180" height="180" x="-199" y="-194" rx="90" ry="90" transform="matrix(0,-1,-1,0,0,0)" style="opacity:0.02;fill:#000000;fill-opacity:1"/>
  <rect id="rect4217" width="208" height="208" x="0" y="0" style="opacity:0.001;fill:#000000;fill-opacity:1;fill-rule:nonzero;stroke:none;stroke-width:2;stroke-linecap:round;stroke-linejoin:round;stroke-miterlimit:4;stroke-dasharray:none;stroke-opacity:1"/>
  <rect id="rect4197" width="180" height="180" x="-198" y="-194" rx="90" ry="90" transform="matrix(0,-1,-1,0,0,0)" style="opacity:0.02;fill:#000000;fill-opacity:1"/>
  <rect id="rect4199" width="180" height="180" x="-197" y="-194" rx="90" ry="90" transform="matrix(0,-1,-1,0,0,0)" style="opacity:0.02;fill:#000000;fill-opacity:1"/>
  <rect id="rect4201" width="180" height="180" x="-196" y="-194" rx="90" ry="90" transform="matrix(0,-1,-1,0,0,0)" style="opacity:0.02;fill:#000000;fill-opacity:1"/>
  <rect id="rect4203" width="180" height="180" x="-195" y="-194" rx="90" ry="90" transform="matrix(0,-1,-1,0,0,0)" style="opacity:0.02;fill:#000000;fill-opacity:1"/>
  <g id="g865">
   <rect style="fill:#00bcd4;fill-opacity:1" id="rect4" width="180" height="180" x="-194" y="-194" rx="90" ry="90" transform="matrix(0,-1,-1,0,0,0)"/>
   <circle style="opacity:0.05;fill:#000000;fill-opacity:1;fill-rule:nonzero;stroke:none;stroke-width:2;stroke-linecap:round;stroke-linejoin:round;stroke-miterlimit:4;stroke-dasharray:none;stroke-opacity:1" id="circle4209" cx="104" cy="107" r="70"/>
   <circle style="opacity:0.05;fill:#000000;fill-opacity:1;fill-rule:nonzero;stroke:none;stroke-width:2;stroke-linecap:round;stroke-linejoin:round;stroke-miterlimit:4;stroke-dasharray:none;stroke-opacity:1" id="circle4207" cx="104" cy="106" r="70"/>
   <circle style="opacity:0.05;fill:#000000;fill-opacity:1;fill-rule:nonzero;stroke:none;stroke-width:2;stroke-linecap:round;stroke-linejoin:round;stroke-miterlimit:4;stroke-dasharray:none;stroke-opacity:1" id="circle4205" cx="104" cy="105" r="70"/>
   <circle style="opacity:1;fill:#fefefe;fill-opacity:1;fill-rule:nonzero;stroke:none;stroke-width:2;stroke-linecap:round;stroke-linejoin:round;stroke-miterlimit:4;stroke-dasharray:none;stroke-opacity:1" id="path4224" cx="104" cy="104" r="70"/>
   <path style="fill:#53b64d;fill-opacity:1" id="path4185" d="m 104,45 a 4,4 0 0 0 -4,4 4,4 0 0 0 4,4 4,4 0 0 0 4.00195,-4 4,4 0 0 0 -2.08398,-3.509766 A 4,4 0 0 0 104,45 Z m -27.84375,7.4375 a 4,4 0 0 0 -0.04883,0.0039 4,4 0 0 0 -0.228516,0.01563 4,4 0 0 0 -0.171875,0.01758 4,4 0 0 0 -0.21875,0.03906 4,4 0 0 0 -0.175781,0.03516 4,4 0 0 0 -0.208984,0.05859 4,4 0 0 0 -0.177735,0.05664 4,4 0 0 0 -0.199219,0.07813 4,4 0 0 0 -0.167968,0.07031 4,4 0 0 0 -0.308594,0.158203 4,4 0 0 0 -1.878906,2.484375 4,4 0 0 0 0,0.002 4,4 0 0 0 -0.117188,0.789063 4,4 0 0 0 0.123047,1.189453 4,4 0 0 0 0.275391,0.748047 4,4 0 0 0 0,0.002 4,4 0 0 0 0.132812,0.25 4,4 0 0 0 2.484375,1.878906 4,4 0 0 0 0.002,0 4,4 0 0 0 0.390625,0.07813 4,4 0 0 0 0.002,0 4,4 0 0 0 2.585938,-0.492187 4,4 0 0 0 1.191406,-1.052735 4,4 0 0 0 0.416016,-0.68164 4,4 0 0 0 0.271484,-0.751954 4,4 0 0 0 0.07813,-0.390624 4,4 0 0 0 0.03906,-0.798829 4,4 0 0 0 -0.04102,-0.396484 4,4 0 0 0 -0.357422,-1.140625 4,4 0 0 0 0,-0.002 4,4 0 0 0 -0.132812,-0.25 4,4 0 0 0 -1.384766,-1.416016 4,4 0 0 0 -0.349609,-0.189453 4,4 0 0 0 -0.002,0 4,4 0 0 0 -0.367188,-0.15625 4,4 0 0 0 -0.708984,-0.18164 4,4 0 0 0 -0.06445,-0.01367 4,4 0 0 0 -0.002,0 4,4 0 0 0 -0.03711,-0.0039 4,4 0 0 0 -0.464844,-0.03516 4,4 0 0 0 -0.177734,-0.002 z m 55.6875,0 a 4,4 0 0 0 -3.55859,1.998047 4,4 0 0 0 1.46484,5.464844 4,4 0 0 0 5.46484,-1.464844 A 4,4 0 0 0 133.75,52.970703 4,4 0 0 0 131.84375,52.4375 Z M 56.029297,72.751953 A 4,4 0 0 0 52.470703,74.75 4,4 0 0 0 53.935547,80.214844 4,4 0 0 0 59.400391,78.75 4,4 0 0 0 57.935547,73.285156 4,4 0 0 0 56.029297,72.751953 Z m 95.941403,0 a 4,4 0 0 0 -0.0488,0.0039 4,4 0 0 0 -0.22852,0.01563 4,4 0 0 0 -0.17188,0.01758 4,4 0 0 0 -0.21484,0.03711 4,4 0 0 0 -0.18359,0.03906 4,4 0 0 0 -0.19141,0.05273 4,4 0 0 0 -0.19336,0.06055 4,4 0 0 0 -0.19726,0.07813 4,4 0 0 0 -0.16797,0.07031 4,4 0 0 0 -0.3086,0.158203 4,4 0 0 0 -1.8789,2.484375 4,4 0 0 0 0,0.002 4,4 0 0 0 -0.11719,0.789063 4,4 0 0 0 0.12305,1.189453 4,4 0 0 0 0.27539,0.748047 4,4 0 0 0 0.13281,0.251953 4,4 0 0 0 2.48437,1.878906 4,4 0 0 0 0.002,0 4,4 0 0 0 0.39062,0.07813 4,4 0 0 0 0.002,0 4,4 0 0 0 2.58593,-0.492187 4,4 0 0 0 1.19141,-1.052735 4,4 0 0 0 0.41602,-0.68164 4,4 0 0 0 0.27148,-0.751953 4,4 0 0 0 0.0781,-0.390625 4,4 0 0 0 0.0391,-0.798829 4,4 0 0 0 -0.041,-0.396484 4,4 0 0 0 -0.35742,-1.140625 4,4 0 0 0 0,-0.002 4,4 0 0 0 -0.13281,-0.25 4,4 0 0 0 -1.38477,-1.416016 4,4 0 0 0 -0.34961,-0.189453 4,4 0 0 0 -0.002,0 4,4 0 0 0 -0.36719,-0.15625 4,4 0 0 0 -0.70898,-0.18164 4,4 0 0 0 -0.0645,-0.01367 4,4 0 0 0 -0.002,0 4,4 0 0 0 -0.0371,-0.0039 4,4 0 0 0 -0.46484,-0.03516 4,4 0 0 0 -0.17774,-0.002 z M 48.5,100.5 a 4,4 0 0 0 -4,4 4,4 0 0 0 4,4 4,4 0 0 0 4.001953,-4 4,4 0 0 0 -2.083984,-3.50977 A 4,4 0 0 0 48.5,100.5 Z m 111,0 a 4,4 0 0 0 -4,4 4,4 0 0 0 4,4 4,4 0 0 0 4.00195,-4 4,4 0 0 0 -2.08398,-3.50977 A 4,4 0 0 0 159.5,100.5 Z M 55.841797,128.25195 a 4,4 0 0 0 -0.04883,0.004 4,4 0 0 0 -0.228516,0.0156 4,4 0 0 0 -0.171875,0.0176 4,4 0 0 0 -0.214844,0.0371 4,4 0 0 0 -0.183593,0.0391 4,4 0 0 0 -0.191407,0.0527 4,4 0 0 0 -0.193359,0.0606 4,4 0 0 0 -0.197266,0.0781 4,4 0 0 0 -0.167968,0.0703 4,4 0 0 0 -0.308594,0.15821 4,4 0 0 0 -1.878906,2.48437 4,4 0 0 0 0,0.002 4,4 0 0 0 -0.117188,0.78907 4,4 0 0 0 0.123047,1.18945 4,4 0 0 0 0.275391,0.74805 4,4 0 0 0 0,0.002 4,4 0 0 0 0.132812,0.25 4,4 0 0 0 2.484375,1.87891 4,4 0 0 0 0.002,0 4,4 0 0 0 0.390625,0.0781 4,4 0 0 0 0.002,0 4,4 0 0 0 2.585938,-0.49219 4,4 0 0 0 1.191406,-1.05273 4,4 0 0 0 0.416016,-0.68164 4,4 0 0 0 0.271484,-0.75195 4,4 0 0 0 0.01367,-0.0645 4,4 0 0 0 0.103516,-0.72461 4,4 0 0 0 0,-0.40039 4,4 0 0 0 -0.04102,-0.39648 4,4 0 0 0 -0.357422,-1.14063 4,4 0 0 0 0,-0.002 4,4 0 0 0 -0.132812,-0.25 4,4 0 0 0 -1.384766,-1.41602 4,4 0 0 0 -0.349609,-0.18945 4,4 0 0 0 -0.002,0 4,4 0 0 0 -0.367187,-0.15625 4,4 0 0 0 -0.708984,-0.18164 4,4 0 0 0 -0.06445,-0.0137 4,4 0 0 0 -0.002,0 4,4 0 0 0 -0.03711,-0.004 4,4 0 0 0 -0.464844,-0.0352 4,4 0 0 0 -0.177734,-0.002 z m 96.316403,0 a 4,4 0 0 0 -3.55859,1.99805 4,4 0 0 0 1.46484,5.46484 4,4 0 0 0 5.46485,-1.46484 4,4 0 0 0 -1.46485,-5.46484 4,4 0 0 0 -1.90625,-0.53321 z m -75.81445,20.31446 a 4,4 0 0 0 -3.558594,1.99804 4,4 0 0 0 1.464844,5.46485 4,4 0 0 0 5.464844,-1.46485 4,4 0 0 0 -1.464844,-5.46484 4,4 0 0 0 -1.90625,-0.5332 z m 55.3125,0 a 4,4 0 0 0 -0.0488,0.004 4,4 0 0 0 -0.22851,0.0156 4,4 0 0 0 -0.17188,0.0176 4,4 0 0 0 -0.21484,0.0371 4,4 0 0 0 -0.1836,0.0391 4,4 0 0 0 -0.1914,0.0527 4,4 0 0 0 -0.19336,0.0606 4,4 0 0 0 -0.19727,0.0781 4,4 0 0 0 -0.16797,0.0703 4,4 0 0 0 -0.30859,0.1582 4,4 0 0 0 -1.87891,2.48437 4,4 0 0 0 0,0.002 4,4 0 0 0 -0.11718,0.78906 4,4 0 0 0 0.12304,1.18945 4,4 0 0 0 0.27539,0.74805 4,4 0 0 0 0.13282,0.25195 4,4 0 0 0 0.46679,0.64844 4,4 0 0 0 2.01758,1.23047 4,4 0 0 0 0.002,0 4,4 0 0 0 0.39063,0.0781 4,4 0 0 0 0.002,0 4,4 0 0 0 2.58594,-0.49218 4,4 0 0 0 1.19141,-1.05274 4,4 0 0 0 0.41601,-0.68164 4,4 0 0 0 0.27149,-0.75195 4,4 0 0 0 0.0137,-0.0644 4,4 0 0 0 0.10351,-0.72461 4,4 0 0 0 0,-0.40039 4,4 0 0 0 -0.041,-0.39649 4,4 0 0 0 -0.35742,-1.14062 4,4 0 0 0 0,-0.002 4,4 0 0 0 -0.13282,-0.25 4,4 0 0 0 -1.38476,-1.41601 4,4 0 0 0 -0.34961,-0.18946 4,4 0 0 0 -0.002,0 4,4 0 0 0 -0.36719,-0.15625 4,4 0 0 0 -0.70899,-0.18164 4,4 0 0 0 -0.0645,-0.0137 4,4 0 0 0 -0.002,0 4,4 0 0 0 -0.0371,-0.004 4,4 0 0 0 -0.46485,-0.0352 4,4 0 0 0 -0.17773,-0.002 z M 104,156 a 4,4 0 0 0 -4,4 4,4 0 0 0 4,4 4,4 0 0 0 4.00195,-4 4,4 0 0 0 -2.08398,-3.50977 A 4,4 0 0 0 104,156 Z"/>
  </g>
 </g>
</svg>
