<svg xmlns="http://www.w3.org/2000/svg" id="svg2" width="208" height="208" version="1">
 <g id="ClockFace">
  <rect id="rect4224" style="opacity:0.05;fill:#000000;fill-opacity:1" width="180" height="180" x="-202" y="-194" rx="90" ry="90" transform="matrix(0,-1,-1,0,0,0)"/>
  <rect id="rect4226" style="opacity:0.05;fill:#000000;fill-opacity:1" width="180" height="180" x="-201" y="-194" rx="90" ry="90" transform="matrix(0,-1,-1,0,0,0)"/>
  <rect id="rect4228" style="opacity:0.05;fill:#000000;fill-opacity:1" width="180" height="180" x="-200" y="-194" rx="90" ry="90" transform="matrix(0,-1,-1,0,0,0)"/>
  <rect id="rect4230" style="opacity:0.05;fill:#000000;fill-opacity:1" width="180" height="180" x="-199" y="-194" rx="90" ry="90" transform="matrix(0,-1,-1,0,0,0)"/>
  <rect id="rect4217" style="opacity:0.00100002;fill:#000000;fill-opacity:1;fill-rule:nonzero;stroke:none;stroke-width:2;stroke-linecap:round;stroke-linejoin:round;stroke-miterlimit:4;stroke-dasharray:none;stroke-opacity:1" width="208" height="208" x="0" y="0"/>
  <rect id="rect4197" style="opacity:0.05;fill:#000000;fill-opacity:1" width="180" height="180" x="-198" y="-194" rx="90" ry="90" transform="matrix(0,-1,-1,0,0,0)"/>
  <rect id="rect4199" style="opacity:0.05;fill:#000000;fill-opacity:1" width="180" height="180" x="-197" y="-194" rx="90" ry="90" transform="matrix(0,-1,-1,0,0,0)"/>
  <rect id="rect4201" style="opacity:0.05;fill:#000000;fill-opacity:1" width="180" height="180" x="-196" y="-194" rx="90" ry="90" transform="matrix(0,-1,-1,0,0,0)"/>
  <rect id="rect4203" style="opacity:0.05;fill:#000000;fill-opacity:1" width="180" height="180" x="-195" y="-194" rx="90" ry="90" transform="matrix(0,-1,-1,0,0,0)"/>
  <rect id="rect4" style="fill:#00bcd4;fill-opacity:1" width="180" height="180" x="-194" y="-194" rx="90" ry="90" transform="matrix(0,-1,-1,0,0,0)"/>
  <circle id="circle4209" style="opacity:0.05;fill:#000000;fill-opacity:1;fill-rule:nonzero;stroke:none;stroke-width:2;stroke-linecap:round;stroke-linejoin:round;stroke-miterlimit:4;stroke-dasharray:none;stroke-opacity:1" cx="104" cy="107" r="70"/>
  <circle id="circle4207" style="opacity:0.05;fill:#000000;fill-opacity:1;fill-rule:nonzero;stroke:none;stroke-width:2;stroke-linecap:round;stroke-linejoin:round;stroke-miterlimit:4;stroke-dasharray:none;stroke-opacity:1" cx="104" cy="106" r="70"/>
  <path id="rect4219" style="opacity:0.2;fill:#ffffff;fill-opacity:1" d="m 104,14 c -49.86,0 -90,40.14 -90,90 0,0.16717 0.005,0.33305 0.0059,0.5 C 14.273783,54.872475 54.307173,15 104,15 c 49.69283,0 89.72622,39.872475 89.99414,89.5 9e-4,-0.16695 0.006,-0.33283 0.006,-0.5 0,-49.86 -40.14,-90 -90,-90 z"/>
  <circle id="circle4205" style="opacity:0.05;fill:#000000;fill-opacity:1;fill-rule:nonzero;stroke:none;stroke-width:2;stroke-linecap:round;stroke-linejoin:round;stroke-miterlimit:4;stroke-dasharray:none;stroke-opacity:1" cx="104" cy="105" r="70"/>
  <circle id="path4224" style="opacity:1;fill:#ebebeb;fill-opacity:1;fill-rule:nonzero;stroke:none;stroke-width:2;stroke-linecap:round;stroke-linejoin:round;stroke-miterlimit:4;stroke-dasharray:none;stroke-opacity:1" cx="104" cy="104" r="70"/>
 </g>
 <g id="MinuteHand">
  <path id="rect4187" style="opacity:0.00100002;fill:#000000;fill-opacity:1;fill-rule:nonzero;stroke:none;stroke-width:2;stroke-linecap:round;stroke-linejoin:round;stroke-miterlimit:4;stroke-dasharray:none;stroke-opacity:1" d="m 249,137 10,0 0,72 -10,0 z"/>
  <path id="HourHand3" style="fill:#5e5e5e" d="M 252.00392,206 250,142 c 0,-2.20914 1.79088,-4 4,-4 2.20912,0 4,1.79086 4,4 l -2.00392,64 c 0,0 0.004,2 -1.99608,2 -2,0 -1.99608,-2 -1.99608,-2 z"/>
 </g>
 <g id="HourHand">
  <path id="rect4189" style="opacity:0.00100002;fill:#000000;fill-opacity:1;fill-rule:nonzero;stroke:none;stroke-width:2;stroke-linecap:round;stroke-linejoin:round;stroke-miterlimit:4;stroke-dasharray:none;stroke-opacity:1" d="m 266,137 10,0 0,52 -10,0 z"/>
  <path id="MinuteHand3" style="fill:#3f3f3f" d="m 269,186 -2.03125,-44 c 0,-2.20914 1.79088,-4 4,-4 2.20912,0 4,1.79086 4,4 -5.1e-4,0.10431 -0.005,0.20855 -0.0138,0.3125 L 273,186 c 0,0 -0.0312,2 -2.03125,2 -2,0 -1.96875,-2 -1.96875,-2 z"/>
 </g>
 <g id="SecondHand">
  <path id="rect4208" style="opacity:0.00100002;fill:#000000;fill-opacity:1;fill-rule:nonzero;stroke:none;stroke-width:2;stroke-linecap:round;stroke-linejoin:round;stroke-miterlimit:4;stroke-dasharray:none;stroke-opacity:1" d="m 283,137 6,0 0,70 -6,0 z"/>
  <g id="g4210" transform="translate(-4.0644,-2.00021)">
   <path id="rect6212" style="fill:#4db6ac;fill-opacity:1;stroke:none" d="m 291.0644,141.00021 0,65.9994 c 0,0 0,1.0006 -1,1.0006 -1,0 -1,-1 -1,-1 l 0,-65.99981 z"/>
   <path id="path6214" style="fill:#4db6ac;fill-opacity:1;stroke:none" d="m 289.06331,143.73103 c -0.95585,-0.55323 -1.28286,-1.77611 -0.73003,-2.73207 0.55293,-0.95613 1.77614,-1.28298 2.73218,-0.7301 0.95583,0.55322 1.28286,1.77611 0.72992,2.73224 -0.55283,0.95596 -1.77605,1.2828 -2.73207,0.72993 z"/>
  </g>
 </g>
</svg>
