<svg xmlns="http://www.w3.org/2000/svg" id="svg2" width="60" height="90" version="1">
 <rect id="hint-glow-radius" style="opacity:1;fill:#4f8100;fill-opacity:1;fill-rule:nonzero;stroke:none;stroke-width:6.69999981;stroke-linecap:round;stroke-linejoin:round;stroke-miterlimit:4;stroke-dasharray:none;stroke-dashoffset:0;stroke-opacity:1" width="5" height="5" x="5.3" y="45.78"/>
 <rect id="hint-stretch-borders" style="opacity:1;fill:#4f8100;fill-opacity:1;fill-rule:nonzero;stroke:none;stroke-width:6.69999981;stroke-linecap:round;stroke-linejoin:round;stroke-miterlimit:4;stroke-dasharray:none;stroke-dashoffset:0;stroke-opacity:1" width="5" height="5" x="5.3" y="53.45"/>
 <rect id="center" style="opacity:0;fill:#ffffff;fill-opacity:1;fill-rule:nonzero;stroke:none;stroke-width:6.69999980999999956;stroke-linecap:round;stroke-linejoin:round;stroke-miterlimit:4;stroke-dasharray:none;stroke-dashoffset:0;stroke-opacity:1" width="12.01" height="12.01" x="14.02" y="20.11"/>
 <path id="topright" style="fill:#4db6ac;fill-opacity:1;opacity:0.2" d="m 40,10 c 0,0 12,0 12,12 l -12,0 z"/>
 <path id="topleft" style="fill:#4db6ac;fill-opacity:1;opacity:0.2" d="m -22,16 c 12,0 12,12 12,12 l -12,0 z" transform="matrix(0,-1,1,0,0,0)"/>
 <rect id="top" style="fill:#4db6ac;fill-opacity:1;opacity:0.2" width="12" height="12" x="28" y="10"/>
 <rect id="right" style="fill:#4db6ac;fill-opacity:1;opacity:0.2" width="12" height="12" x="22" y="-52" transform="matrix(0,1,-1,0,0,0)"/>
 <path id="bottomright" style="fill:#4db6ac;fill-opacity:1;opacity:0.2" d="m 40,-46 c 0,0 12,0 12,12 l -12,0 z" transform="scale(1,-1)"/>
 <rect id="bottom" style="fill:#4db6ac;fill-opacity:1;opacity:0.2" width="12" height="12" x="-40" y="-46" transform="scale(-1,-1)"/>
 <rect id="left" style="fill:#4db6ac;fill-opacity:1;opacity:0.2" width="12" height="12" x="22" y="16" transform="matrix(0,1,1,0,0,0)"/>
 <path id="bottomleft" style="fill:#4db6ac;fill-opacity:1;opacity:0.2" d="m 34,16 c 12,0 12,12 12,12 l -12,0 z" transform="matrix(0,1,1,0,0,0)"/>
</svg>
