<svg xmlns="http://www.w3.org/2000/svg" xmlns:osb="http://www.openswatchbook.org/uri/2009/osb" xmlns:xlink="http://www.w3.org/1999/xlink" id="svg2" width="220" height="212" version="1">
 <defs id="defs5">
  <linearGradient id="linearGradient6476" osb:paint="solid">
   <stop id="stop6478" style="stop-color:#ffffff;stop-opacity:1;" offset="0"/>
  </linearGradient>
  <linearGradient id="linearGradient6476-4" osb:paint="solid">
   <stop id="stop6478-8" style="stop-color:#ffffff;stop-opacity:1;" offset="0"/>
  </linearGradient>
  <linearGradient id="linearGradient5627-9">
   <stop id="stop5629-4" style="stop-color:#0c6395;stop-opacity:1;" offset="0"/>
   <stop id="stop5631-1" style="stop-color:#3daeef;stop-opacity:1;" offset="1"/>
  </linearGradient>
  <linearGradient id="linearGradient4381" x1="216" x2="216" y1="107" y2="110" gradientUnits="userSpaceOnUse" xlink:href="#linearGradient5627-9"/>
  <linearGradient id="linearGradient4389" x1="216" x2="216" y1="107" y2="110" gradientUnits="userSpaceOnUse" xlink:href="#linearGradient5627-9"/>
 </defs>
 <g id="base-topleft" transform="translate(829.80716,-769.58398)">
  <path id="path3967" style="color:#eff0f1;fill:#263238;fill-opacity:1;stroke:none;opacity:1" d="m 162,-159 a 2,2 0 0 1 -2,2 l 0,-2 z" transform="matrix(-0.5,0,0,-0.5,-639.80709,700.08403)"/>
 </g>
 <g id="base-bottomleft" transform="translate(829.80716,-765.58399)">
  <path id="path3919" style="color:#eff0f1;opacity:1;fill:#263238;fill-opacity:1;stroke:none" d="m 162,-159 1.4e-4,1.99992 L 160,-157 l 0,-2 z" transform="matrix(-0.5,0,0,0.5,-639.80709,890.08403)"/>
 </g>
 <g id="base-left" transform="matrix(1,0,0,1.666664,829.80716,-1305.9712)">
  <rect id="rect3943" style="color:#eff0f1;fill:#263238;fill-opacity:1;stroke:none;opacity:1" width="1" height="21" x="-720.81" y="789.58"/>
 </g>
 <g id="base-top" transform="matrix(1.9090909,0,0,1,1484.1774,-769.58398)">
  <rect id="rect3965" style="color:#eff0f1;fill:#263238;fill-opacity:1;stroke:none;opacity:1" width="55" height="1" x="-719.81" y="778.58"/>
 </g>
 <g id="base-bottom" transform="matrix(1.9090909,0,0,1,1484.1774,-765.58399)">
  <rect id="rect3149" style="color:#eff0f1;fill:#263238;fill-opacity:1;stroke:none;opacity:1" width="55" height="1" x="-719.81" y="810.58"/>
 </g>
 <g id="base-topright" transform="translate(879.80713,-769.58398)">
  <path id="path3963" style="color:#eff0f1;fill:#263238;fill-opacity:1;stroke:none;opacity:1" d="m 162,-159 a 2,2 0 0 1 -2,2 l 0,-2 z" transform="matrix(0.5,0,0,-0.5,-744.80709,700.08403)"/>
 </g>
 <g id="base-bottomright" transform="translate(879.80713,-765.58399)">
  <path id="path3921" style="color:#eff0f1;opacity:1;fill:#263238;fill-opacity:1;stroke:none" d="m 162,-159 -8e-5,1.99992 L 160,-157 l 0,-2 z" transform="matrix(0.5,0,0,0.5,-744.80709,890.08403)"/>
 </g>
 <g id="base-right" transform="matrix(1,0,0,1.666664,879.80713,-1305.9712)">
  <rect id="rect3953" style="color:#eff0f1;fill:#263238;fill-opacity:1;stroke:none;opacity:1" width="1" height="21" x="-664.81" y="789.58"/>
 </g>
 <g id="base-center" transform="translate(0,58)">
  <rect id="rect3935" style="fill:#263238;fill-opacity:1;stroke:none;opacity:1" width="105" height="35" x="110" y="-48"/>
 </g>
 <g id="hover-topleft" transform="translate(829.80716,-713.58398)">
  <path id="path3378" style="opacity:1;fill:#263238;fill-opacity:1;stroke:none" d="m 162,-159 a 2,2 0 0 1 -2,2 l 0,-2 z" transform="matrix(-0.5,0,0,-0.5,-639.80709,700.08403)"/>
 </g>
 <g id="hover-bottomleft" transform="translate(829.80716,-709.58399)">
  <path id="path3384" style="opacity:1;fill:#00bcd4;fill-opacity:1;stroke:none" d="m -720.80709,810.58596 c -7e-5,-0.002 -7e-5,1.99803 -7e-5,1.99803 l 1.00007,0 0,-1.99803 z"/>
 </g>
 <g id="hover-left" transform="matrix(1,0,0,1.666664,829.80716,-1249.9712)">
  <rect id="rect3390" style="opacity:1;fill:#263238;fill-opacity:1;stroke:none" width="1" height="21" x="-720.81" y="789.58"/>
 </g>
 <g id="hover-top" transform="matrix(1.9090909,0,0,1,1484.1774,-713.58398)">
  <rect id="rect3396" style="opacity:1;fill:#263238;fill-opacity:1;stroke:none" width="55" height="1" x="-719.81" y="778.58"/>
 </g>
 <g id="hover-bottom" transform="matrix(1.9090909,0,0,1,1484.1774,-709.58399)">
  <path id="rect3402" style="opacity:1;fill:#00bcd4;fill-opacity:1;stroke:none" d="m -719.81,810.58195 55,0 0,1.99803 -55,0 z"/>
 </g>
 <g id="hover-topright" transform="translate(879.80713,-713.58398)">
  <path id="path3408" style="opacity:1;fill:#263238;fill-opacity:1;stroke:none" d="m 162,-159 a 2,2 0 0 1 -2,2 l 0,-2 z" transform="matrix(0.5,0,0,-0.5,-744.80709,700.08403)"/>
 </g>
 <g id="hover-bottomright" transform="translate(879.80713,-709.58399)">
  <path id="path3414" style="opacity:1;fill:#00bcd4;fill-opacity:1;stroke:none" d="m -663.80709,810.58596 c -4e-5,-0.002 -4e-5,1.99803 -4e-5,1.99803 l -1.00006,0 0,-1.99803 z"/>
 </g>
 <g id="hover-right" transform="matrix(1,0,0,1.666664,879.80713,-1249.9712)">
  <rect id="rect3420" style="opacity:1;fill:#263238;fill-opacity:1;stroke:none" width="1" height="21" x="-664.81" y="789.58"/>
 </g>
 <rect id="hover-center" style="fill:#263238;fill-opacity:1;stroke:none;opacity:1" width="105" height="35" x="110" y="66"/>
 <g id="focus-topleft" transform="translate(829.80716,-665.58398)">
  <path id="path3434" style="opacity:1;fill:#263238;fill-opacity:1;stroke:none" d="m 162,-159 a 2,2 0 0 1 -2,2 l 0,-2 z" transform="matrix(-0.5,0,0,-0.5,-639.80709,700.08403)"/>
 </g>
 <g id="focus-bottomleft" transform="translate(829.80716,-661.58399)">
  <path id="path3440" style="opacity:1;fill:#00bcd4;fill-opacity:1;stroke:none" d="m -720.80709,810.58596 c -0.003,-0.009 -7e-5,1.99803 -7e-5,1.99803 l 1.00007,0 0,-1.99803 z"/>
 </g>
 <g id="focus-left" transform="matrix(1,0,0,1.666664,829.80716,-1201.9712)">
  <rect id="rect3446" style="opacity:1;fill:#263238;fill-opacity:1;stroke:none" width="1" height="21" x="-720.81" y="789.58"/>
 </g>
 <g id="focus-top" transform="matrix(1.9090909,0,0,1,1484.1774,-665.58398)">
  <rect id="rect3452" style="opacity:1;fill:#263238;fill-opacity:1;stroke:none" width="55" height="1" x="-719.81" y="778.58"/>
 </g>
 <g id="focus-bottom" transform="matrix(1.9090909,0,0,1,1484.1774,-661.58399)">
  <path id="rect3458" style="opacity:1;fill:#00bcd4;fill-opacity:1;stroke:none" d="m -719.81,810.58195 55,0 0,1.99803 -55,0 z"/>
 </g>
 <g id="focus-topright" transform="translate(879.80713,-665.58398)">
  <path id="path3464" style="opacity:1;fill:#263238;fill-opacity:1;stroke:none" d="m 162,-159 a 2,2 0 0 1 -2,2 l 0,-2 z" transform="matrix(0.5,0,0,-0.5,-744.80709,700.08403)"/>
 </g>
 <g id="focus-bottomright" transform="translate(879.80713,-661.58399)">
  <path id="path3470" style="opacity:1;fill:#00bcd4;fill-opacity:1;stroke:none" d="m -663.80709,810.58596 -4e-5,1.99803 -0.99996,0 0,-1.99803 z"/>
 </g>
 <g id="focus-right" transform="matrix(1,0,0,1.666664,879.80713,-1201.9712)">
  <rect id="rect3476" style="opacity:1;fill:#263238;fill-opacity:1;stroke:none" width="1" height="21" x="-664.81" y="789.58"/>
 </g>
 <rect id="focus-center" style="fill:#263238;fill-opacity:1;stroke:none" width="105" height="35" x="110" y="114"/>
 <rect id="hover-hint-bottom-margin" style="fill:#4e9a06;fill-opacity:1;fill-rule:nonzero;stroke:none" width="2" height="2" x="161" y="101"/>
 <rect id="hover-hint-top-margin" style="fill:#4e9a06;fill-opacity:1;fill-rule:nonzero;stroke:none" width="2" height="1" x="161.5" y="65"/>
 <rect id="hover-hint-left-margin" style="fill:#4e9a06;fill-opacity:1;fill-rule:nonzero;stroke:none" width="2" height="1" x="-84" y="109" transform="matrix(0,-1,1,0,0,0)"/>
 <rect id="hover-hint-right-margin" style="fill:#4e9a06;fill-opacity:1;fill-rule:nonzero;stroke:none" width="2" height="1" x="-84" y="215" transform="matrix(0,-1,1,0,0,0)"/>
 <rect id="focus-hint-bottom-margin" style="fill:#4e9a06;fill-opacity:1;fill-rule:nonzero;stroke:none" width="2" height="2" x="161" y="149"/>
 <rect id="focus-hint-top-margin" style="fill:#4e9a06;fill-opacity:1;fill-rule:nonzero;stroke:none" width="2" height="1" x="161" y="113"/>
 <rect id="focus-hint-left-margin" style="fill:#4e9a06;fill-opacity:1;fill-rule:nonzero;stroke:none" width="2" height="1" x="-131.9" y="108.9" transform="matrix(0,-1,1,0,0,0)"/>
 <rect id="focus-hint-right-margin" style="fill:#4e9a06;fill-opacity:1;fill-rule:nonzero;stroke:none" width="2" height="1" x="-132" y="215" transform="matrix(0,-1,1,0,0,0)"/>
 <rect id="base-hint-top-margin" style="fill:#4e9a06;fill-opacity:1;fill-rule:nonzero;stroke:none" width="2" height="1" x="161.5" y="9"/>
 <rect id="base-hint-right-margin" style="fill:#4e9a06;fill-opacity:1;fill-rule:nonzero;stroke:none" width="2" height="1" x="-28" y="215" transform="matrix(0,-1,1,0,0,0)"/>
 <rect id="base-hint-left-margin" style="fill:#4e9a06;fill-opacity:1;fill-rule:nonzero;stroke:none" width="2" height="1" x="-28" y="109" transform="matrix(0,-1,1,0,0,0)"/>
 <rect id="base-hint-bottom-margin" style="fill:#4e9a06;fill-opacity:1;fill-rule:nonzero;stroke:none" width="2" height="1" x="163" y="45"/>
</svg>
