<svg xmlns="http://www.w3.org/2000/svg" xmlns:xlink="http://www.w3.org/1999/xlink" id="svg3642" width="205" height="210.939" version="1">
 <defs id="defs3644">
  <radialGradient id="radialGradient4263" cx="984" cy="905.362" r="8.5" fx="984" fy="905.362" gradientTransform="matrix(-2.000005,2.7274335e-6,-2.7273697e-6,-1.999959,2106.0074,1910.6235)" gradientUnits="userSpaceOnUse" xlink:href="#linearGradient4465"/>
  <linearGradient id="linearGradient4465">
   <stop id="stop4467" style="stop-color:#000000;stop-opacity:0.50980395" offset="0"/>
   <stop id="stop4469" style="stop-color:#000000;stop-opacity:0;" offset="1"/>
  </linearGradient>
  <radialGradient id="radialGradient4255" cx="982.909" cy="906.453" r="8.5" fx="982.909" fy="906.453" gradientTransform="matrix(2.0000155,2.520306e-5,-2.5202577e-5,1.9999773,-1777.8106,-1762.9714)" gradientUnits="userSpaceOnUse" xlink:href="#linearGradient4465"/>
  <linearGradient id="linearGradient4259" x1="83.6" x2="83.6" y1="-969.362" y2="-952.362" gradientTransform="matrix(0.71428571,0,0,1,-317.71429,1250.3622)" gradientUnits="userSpaceOnUse" xlink:href="#linearGradient4465"/>
  <linearGradient id="linearGradient4452" x1="-260" x2="-260" y1="281" y2="298" gradientUnits="userSpaceOnUse" xlink:href="#linearGradient4465"/>
  <radialGradient id="radialGradient3382" cx="984" cy="905.362" r="8.5" fx="984" fy="905.362" gradientTransform="matrix(-9.2000273e-6,2.0000019,-1.9999805,-9.1999274e-6,1998.7156,-1868.0546)" gradientUnits="userSpaceOnUse" xlink:href="#linearGradient4465"/>
  <radialGradient id="radialGradient4275" cx="984" cy="905.362" r="8.5" fx="984" fy="905.362" gradientTransform="matrix(8.0913751e-7,-2.000009,1.9999882,8.0912794e-7,-1672.7142,2017.9472)" gradientUnits="userSpaceOnUse" xlink:href="#linearGradient4465"/>
  <linearGradient id="linearGradient4315" x1="83.6" x2="83.6" y1="-969.362" y2="-952.362" gradientTransform="matrix(0.71428571,0,0,1,-317.71429,1250.3622)" gradientUnits="userSpaceOnUse" xlink:href="#linearGradient4465"/>
  <linearGradient id="linearGradient4317" x1="83.6" x2="83.6" y1="-969.362" y2="-952.362" gradientTransform="matrix(0.71428571,0,0,1,-317.71429,1250.3622)" gradientUnits="userSpaceOnUse" xlink:href="#linearGradient4465"/>
 </defs>
 <rect id="center" style="opacity:1;fill:#263238;fill-opacity:1;stroke:none" width="50" height="50" x="7" y="51.94"/>
 <g id="topleft" transform="translate(-183,-207.06091)">
  <path id="path4428" style="opacity:1;fill:#263238;fill-opacity:1;stroke:none" d="m 190.00001,251.99982 0,7 -7,0 0,-2 c 0,-2.77 2.23,-5 5,-5 z"/>
 </g>
 <g id="left" transform="translate(-183,-207.06091)">
  <path id="path4418" style="opacity:1;fill:#263238;fill-opacity:1;stroke:none" d="m 183.00002,258.99981 0,50 7,10e-6 0,-50 z"/>
 </g>
 <g id="right" transform="translate(-183,-207.06091)">
  <path id="path4396" style="opacity:1;fill:#263238;fill-opacity:1;stroke:none" d="m 247,258.99982 0,50 -7,10e-6 0,-50 z"/>
 </g>
 <g id="bottomleft" transform="translate(-183,-207.06091)">
  <path id="path4414" style="opacity:1;fill:#263238;fill-opacity:1;stroke:none" d="m 190.00001,315.99991 0,-7 -7,0 0,2 c 0,2.77 2.23,5 5,5 z"/>
 </g>
 <g id="bottom" transform="translate(-183,-207.06091)">
  <path id="path4404" style="opacity:1;fill:#263238;fill-opacity:1;stroke:none" d="m 189.99998,315.99995 50.00002,0 0,-7 -50.00001,0 z"/>
 </g>
 <g id="bottomright" transform="translate(-183,-207.06091)">
  <path id="path4392" style="opacity:1;fill:#263238;fill-opacity:1;stroke:none" d="m 240,315.99991 0,-7 7,0 0,2 c 0,2.77 -2.23,5 -5,5 z"/>
 </g>
 <g id="topright" transform="translate(-183,-207.06091)">
  <path id="path4378" style="opacity:1;fill:#263238;fill-opacity:1;stroke:none" d="m 240,251.99982 0,7 7,0 0,-2 c 0,-2.77 -2.23,-5 -5,-5 z"/>
 </g>
 <g id="top" transform="translate(-183,-207.06091)">
  <path id="path4382" style="opacity:1;fill:#263238;fill-opacity:1;stroke:none" d="m 189.99998,251.99982 50.00002,0 0,7 -50.00001,0 z"/>
 </g>
 <g id="shadow-center" style="fill:#000000;fill-opacity:0" transform="matrix(0.31570315,0,0,0.31570315,-251.27186,5.27591)">
  <path id="path3642" style="fill:#000000;fill-opacity:0;stroke:none" d="m -6.0000004,-7.998957 0,62 62.0000004,0 0,-62 -62.0000004,0 z"/>
 </g>
 <rect id="hint-top-margin" style="opacity:1;fill:#ff00ff;fill-opacity:1;stroke:none" width="4" height="10" x="29" y="51.94"/>
 <rect id="hint-bottom-margin" style="opacity:1;fill:#ff00ff;fill-opacity:1;stroke:none" width="4" height="10" x="29" y="91.94"/>
 <rect id="hint-left-margin" style="opacity:1;fill:#ff00ff;fill-opacity:1;stroke:none" width="10" height="4" x="7" y="73.94"/>
 <rect id="hint-right-margin" style="opacity:1;fill:#ff00ff;fill-opacity:1;stroke:none" width="10" height="4" x="47" y="73.94"/>
 <rect id="hint-tile-center" style="opacity:1;fill:#ff6600;fill-opacity:1;stroke:none" width="5" height="5" x="0" y="-.06"/>
 <path id="shadow-topleft" style="opacity:1;fill:url(#radialGradient4275);fill-opacity:1;stroke:none" d="m 121,49.93897 10,0 0,-2 c 0,-2.77 2.23,-5 5,-5 l 2,0 0,-10 -17,0 z"/>
 <g id="shadow-left" transform="matrix(-1,0,0,1,419,-207.06102)">
  <rect id="rect4267" style="opacity:1;fill:url(#linearGradient4315);fill-opacity:1;stroke:none" width="50" height="10" x="-307" y="288" transform="matrix(0,-1,1,0,0,0)"/>
  <rect id="rect4269" style="fill:#3498db;fill-opacity:0" width="7" height="1" x="278" y="257" transform="translate(3,2)"/>
 </g>
 <path id="shadow-bottomright" style="opacity:1;fill:url(#radialGradient3382);fill-opacity:1;stroke:none" d="m 205,99.93897 -10,0 0,2 c 0,2.77 -2.23,5 -5,5 l -2,0 0,10 17,0 z"/>
 <g id="shadow-bottom" transform="matrix(0,1,-1,0,445,-181.06102)">
  <rect id="rect3389" style="opacity:1;fill:url(#linearGradient4317);fill-opacity:1;stroke:none" width="50" height="10" x="-307" y="288" transform="matrix(0,-1,1,0,0,0)"/>
  <rect id="rect4241" style="fill:#3498db;fill-opacity:0" width="7" height="1" x="278" y="257" transform="translate(3,2)"/>
 </g>
 <g id="shadow-right" transform="translate(-93,-207.06102)">
  <rect id="rect4251" style="opacity:1;fill:url(#linearGradient4452);fill-opacity:1;stroke:none" width="50" height="10" x="-307" y="288" transform="matrix(0,-1,1,0,0,0)"/>
  <rect id="rect4253" style="fill:#3498db;fill-opacity:0" width="7" height="1" x="278" y="257" transform="translate(3,2)"/>
 </g>
 <g id="shadow-top" transform="matrix(0,-1,-1,0,445,330.93897)">
  <rect id="rect4279" style="opacity:1;fill:url(#linearGradient4259);fill-opacity:1;stroke:none" width="50" height="10" x="-307" y="288" transform="matrix(0,-1,1,0,0,0)"/>
  <rect id="rect4281" style="fill:#3498db;fill-opacity:0" width="7" height="1" x="278" y="257" transform="translate(3,2)"/>
 </g>
 <path id="shadow-topright" style="opacity:1;fill:url(#radialGradient4255);fill-opacity:1;stroke:none" d="m 188,32.93897 0,10 2,0 c 2.77,0 5,2.23 5,5 l 0,2 10,0 0,-17 z"/>
 <path id="shadow-bottomleft" style="opacity:1;fill:url(#radialGradient4263);fill-opacity:1;stroke:none" d="m 138,116.93897 0,-10 -2,0 c -2.77,0 -5,-2.23 -5,-5 l 0,-2 -10,0 0,17 z"/>
 <rect id="shadow-hint-right-margin" style="opacity:1;fill:#ff00ff;fill-opacity:1;stroke:none" width="10" height="4" x="195" y="72.94"/>
 <rect id="shadow-hint-bottom-margin" style="opacity:1;fill:#ff00ff;fill-opacity:1;stroke:none" width="4" height="10" x="161" y="106.94"/>
 <rect id="shadow-hint-left-margin" style="opacity:1;fill:#ff00ff;fill-opacity:1;stroke:none" width="10" height="4" x="121" y="72.94"/>
 <rect id="shadow-hint-top-margin" style="opacity:1;fill:#ff00ff;fill-opacity:1;stroke:none" width="4" height="10" x="162" y="32.94"/>
</svg>
