<?xml version="1.0" encoding="UTF-8" standalone="no"?>
<svg
   xmlns:dc="http://purl.org/dc/elements/1.1/"
   xmlns:cc="http://creativecommons.org/ns#"
   xmlns:rdf="http://www.w3.org/1999/02/22-rdf-syntax-ns#"
   xmlns:svg="http://www.w3.org/2000/svg"
   xmlns="http://www.w3.org/2000/svg"
   xmlns:sodipodi="http://sodipodi.sourceforge.net/DTD/sodipodi-0.dtd"
   xmlns:inkscape="http://www.inkscape.org/namespaces/inkscape"
   width="384"
   height="384"
   version="1.1"
   id="svg2"
   inkscape:version="0.91 r13725"
   sodipodi:docname="start-here-kde-animation.svg">
  <metadata
     id="metadata22">
    <rdf:RDF>
      <cc:Work
         rdf:about="">
        <dc:format>image/svg+xml</dc:format>
        <dc:type
           rdf:resource="http://purl.org/dc/dcmitype/StillImage" />
        <dc:title />
      </cc:Work>
    </rdf:RDF>
  </metadata>
  <defs
     id="defs20" />
  <sodipodi:namedview
     pagecolor="#4f4f4f"
     bordercolor="#666666"
     borderopacity="1"
     objecttolerance="10"
     gridtolerance="10"
     guidetolerance="10"
     inkscape:pageopacity="0"
     inkscape:pageshadow="2"
     inkscape:window-width="1920"
     inkscape:window-height="1018"
     id="namedview18"
     showgrid="false"
     inkscape:zoom="2.32"
     inkscape:cx="172.52898"
     inkscape:cy="197.30766"
     inkscape:window-x="0"
     inkscape:window-y="32"
     inkscape:window-maximized="1"
     inkscape:current-layer="svg2">
    <inkscape:grid
       type="xygrid"
       id="grid4152" />
  </sodipodi:namedview>
  <path
     inkscape:connector-curvature="0"
     style="fill:#ffacff;fill-opacity:1"
     d="m 179.70313,72 c -1.048,0 -1.90903,0.70424 -2.125,1.687504 l -6.89063,31.890626 c -8.46161,2.04098 -16.42515,5.26537 -23.71875,9.48437 L 117.42187,97.82813 c -0.864,-0.50512 -1.98312,-0.42536 -2.70312,0.2656 l -17.04688,16.39062 c -0.73976,0.71424 -0.85481,1.84554 -0.28128,2.6875 l 18.92187,27.6875 c -4.5835,7.49053 -8.03564,15.68253 -10.07812,24.42187 l -32.46872,7.57816 C 72.77925,177.08582 72,177.92494 72,178.90625 L 72,192 l 0,13.09375 c 0,0.98131 0.77925,1.82043 1.76562,2.04687 l 32.46876,7.57813 c 2.04248,8.73935 5.49461,16.93135 10.07812,24.42187 l -18.92188,27.68751 c -0.5736,0.84196 -0.45848,1.97328 0.28128,2.68749 l 17.04688,16.39063 c 0.72,0.69096 1.83912,0.7708 2.70312,0.2656 l 29.54688,-17.23437 c 7.2936,4.219 15.25715,7.44338 23.71876,9.48437 l 6.89062,31.89062 c 0.2159,0.98327 1.07697,1.68753 2.12497,1.68753 L 192,312 l 12.29687,0 c 1.048,0 1.909,-0.70424 2.125,-1.6875 l 6.89063,-31.89063 c 8.46161,-2.04098 16.42515,-5.26537 23.71875,-9.48437 l 29.54688,17.23437 c 0.864,0.50512 1.98312,0.42536 2.70312,-0.2656 l 17.04688,-16.39062 c 0.73976,-0.71416 0.85478,-1.84554 0.28128,-2.6875 l -18.92187,-27.6875 c 4.5835,-7.49053 8.03564,-15.68253 10.07812,-24.42187 l 32.46875,-7.57813 C 311.22071,206.91418 312,206.07506 312,205.09375 L 312,192 l 0,-13.09375 c 0,-0.98131 -0.77928,-1.82045 -1.76562,-2.04687 l -32.46876,-7.57813 c -2.04248,-8.73935 -5.49461,-16.93135 -10.07812,-24.42187 l 18.92188,-27.68751 c 0.5736,-0.84196 0.45848,-1.9733 -0.28128,-2.68749 L 269.28122,98.09375 c -0.72,-0.69096 -1.83912,-0.7708 -2.70312,-0.2656 l -29.54688,17.23437 c -7.2936,-4.21901 -15.25715,-7.44338 -23.71876,-9.48437 L 206.42187,73.687504 C 206.20587,72.704264 205.34487,72 204.29687,72 L 192,72 179.70313,72 Z M 192,128 c 35.3464,0 64,30.72421 64,64 0,33.27579 -28.6536,64 -64,64 -35.3464,0 -64,-30.72421 -64,-64 0,-33.27579 28.6536,-64 64,-64 z"
     id="path4164" />
</svg>
