<?xml version="1.0" encoding="UTF-8" standalone="no"?>
<svg
   xmlns:dc="http://purl.org/dc/elements/1.1/"
   xmlns:cc="http://creativecommons.org/ns#"
   xmlns:rdf="http://www.w3.org/1999/02/22-rdf-syntax-ns#"
   xmlns:svg="http://www.w3.org/2000/svg"
   xmlns="http://www.w3.org/2000/svg"
   xmlns:sodipodi="http://sodipodi.sourceforge.net/DTD/sodipodi-0.dtd"
   xmlns:inkscape="http://www.inkscape.org/namespaces/inkscape"
   id="svg4306"
   style="enable-background:new"
   width="22"
   height="22"
   version="1.1"
   inkscape:version="0.91 r13725"
   sodipodi:docname="maximize.svg">
  <metadata
     id="metadata36">
    <rdf:RDF>
      <cc:Work
         rdf:about="">
        <dc:format>image/svg+xml</dc:format>
        <dc:type
           rdf:resource="http://purl.org/dc/dcmitype/StillImage" />
        <dc:title />
      </cc:Work>
    </rdf:RDF>
  </metadata>
  <defs
     id="defs34" />
  <sodipodi:namedview
     pagecolor="#ffffff"
     bordercolor="#666666"
     borderopacity="1"
     objecttolerance="10"
     gridtolerance="10"
     guidetolerance="10"
     inkscape:pageopacity="0"
     inkscape:pageshadow="2"
     inkscape:window-width="1920"
     inkscape:window-height="1018"
     id="namedview32"
     showgrid="true"
     inkscape:zoom="6.88"
     inkscape:cx="11.01876"
     inkscape:cy="8"
     inkscape:window-x="0"
     inkscape:window-y="32"
     inkscape:window-maximized="1"
     inkscape:current-layer="svg4306">
    <inkscape:grid
       type="xygrid"
       id="grid4176" />
  </sodipodi:namedview>
  <g
     id="pressed-center"
     transform="translate(46,0)">
    <g
       id="g4172">
      <rect
         style="opacity:0.001;fill:#000000;fill-opacity:1;fill-rule:nonzero;stroke:none;stroke-width:2;stroke-linecap:round;stroke-linejoin:round;stroke-miterlimit:4;stroke-dasharray:none;stroke-opacity:1"
         id="rect4164"
         width="22"
         height="22"
         x="0"
         y="0" />
    </g>
    <g
       id="g4135"
       transform="translate(-1,-1)">
      <circle
         style="opacity:0.2;fill:#cfd8dc;fill-opacity:1;fill-rule:nonzero;stroke:none;stroke-width:0;stroke-linecap:square;stroke-linejoin:round;stroke-miterlimit:4;stroke-dasharray:none;stroke-dashoffset:478.43673706;stroke-opacity:0.4"
         id="path4202"
         cx="12"
         cy="12"
         r="8" />
      <path
         style="opacity:1;fill:#cfd8dc;fill-opacity:1;fill-rule:evenodd;stroke:none;stroke-width:2;stroke-linecap:butt;stroke-linejoin:round;stroke-miterlimit:4;stroke-dasharray:none;stroke-dashoffset:478.43673706;stroke-opacity:0.75"
         d="M 53 7 L 53 9 L 61 9 L 61 7 L 53 7 z M 53 10 L 53 15 L 61 15 L 61 10 L 53 10 z M 55 12 L 59 12 L 59 13 L 55 13 L 55 12 z "
         transform="translate(-45,1)"
         id="rect4139" />
    </g>
  </g>
  <g
     id="hover-center"
     transform="translate(-23,0)">
    <g
       transform="translate(46,0)"
       id="g4206">
      <rect
         y="0"
         x="0"
         height="22"
         width="22"
         id="rect4208"
         style="opacity:0.001;fill:#000000;fill-opacity:1;fill-rule:nonzero;stroke:none;stroke-width:2;stroke-linecap:round;stroke-linejoin:round;stroke-miterlimit:4;stroke-dasharray:none;stroke-opacity:1" />
    </g>
    <g
       transform="translate(45,-1)"
       id="g4210">
      <circle
         r="8"
         cy="12"
         cx="12"
         id="circle4212"
         style="opacity:0.1;fill:#cfd8dc;fill-opacity:1;fill-rule:nonzero;stroke:none;stroke-width:0;stroke-linecap:square;stroke-linejoin:round;stroke-miterlimit:4;stroke-dasharray:none;stroke-dashoffset:478.43673706;stroke-opacity:0.4" />
      <path
         style="opacity:1;fill:#cfd8dc;fill-opacity:1;fill-rule:evenodd;stroke:none;stroke-width:2;stroke-linecap:butt;stroke-linejoin:round;stroke-miterlimit:4;stroke-dasharray:none;stroke-dashoffset:478.43673706;stroke-opacity:0.75"
         d="M 30 7 L 30 9 L 38 9 L 38 7 L 30 7 z M 30 10 L 30 15 L 38 15 L 38 10 L 30 10 z M 32 12 L 36 12 L 36 13 L 32 13 L 32 12 z "
         transform="translate(-22,1)"
         id="rect4214" />
    </g>
  </g>
  <g
     id="active-center">
    <rect
       y="0"
       x="0"
       height="22"
       width="22"
       id="rect4266"
       style="opacity:0.001;fill:#000000;fill-opacity:1;fill-rule:nonzero;stroke:none;stroke-width:2;stroke-linecap:round;stroke-linejoin:round;stroke-miterlimit:4;stroke-dasharray:none;stroke-opacity:1" />
    <path
       id="path4268"
       d="m 7,7.0000001 0,2 8,0 0,-2 -8,0 z M 7,10 l 0,5 8,0 0,-5 -8,0 z m 2,2 4,0 0,1 -4,0 0,-1 z"
       style="opacity:1;fill:#cfd8dc;fill-opacity:0.74901961;fill-rule:evenodd;stroke:none;stroke-width:2;stroke-linecap:butt;stroke-linejoin:round;stroke-miterlimit:4;stroke-dasharray:none;stroke-dashoffset:478.43673706;stroke-opacity:0.75"
       inkscape:connector-curvature="0" />
  </g>
  <g
     id="inactive-center"
     transform="translate(69,0)">
    <rect
       style="opacity:0.001;fill:#000000;fill-opacity:1;fill-rule:nonzero;stroke:none;stroke-width:2;stroke-linecap:round;stroke-linejoin:round;stroke-miterlimit:4;stroke-dasharray:none;stroke-opacity:1"
       id="rect4180"
       width="22"
       height="22"
       x="0"
       y="0" />
    <path
       id="rect4139-3"
       d="m 7,7 0,2 8,0 0,-2 -8,0 z m 0,3 0,5 8,0 0,-5 -8,0 z m 2,2 4,0 0,1 -4,0 0,-1 z"
       style="opacity:1;fill:#cfd8dc;fill-opacity:0.4;fill-rule:evenodd;stroke:none;stroke-width:2;stroke-linecap:butt;stroke-linejoin:round;stroke-miterlimit:4;stroke-dasharray:none;stroke-dashoffset:478.43673706;stroke-opacity:0.75"
       inkscape:connector-curvature="0" />
  </g>
  <g
     transform="translate(92,0)"
     id="deactivated-center">
    <rect
       y="0"
       x="0"
       height="22"
       width="22"
       id="rect4278"
       style="opacity:0.001;fill:#000000;fill-opacity:1;fill-rule:nonzero;stroke:none;stroke-width:2;stroke-linecap:round;stroke-linejoin:round;stroke-miterlimit:4;stroke-dasharray:none;stroke-opacity:1" />
    <path
       inkscape:connector-curvature="0"
       style="opacity:1;fill:#cfd8dc;fill-opacity:0.4;fill-rule:evenodd;stroke:none;stroke-width:2;stroke-linecap:butt;stroke-linejoin:round;stroke-miterlimit:4;stroke-dasharray:none;stroke-dashoffset:478.43673706;stroke-opacity:0.75"
       d="m 7,7 0,2 8,0 0,-2 -8,0 z m 0,3 0,5 8,0 0,-5 -8,0 z m 2,2 4,0 0,1 -4,0 0,-1 z"
       id="path4280" />
  </g>
</svg>
