<svg xmlns="http://www.w3.org/2000/svg" id="svg4306" width="22" height="22" version="1.1" style="enable-background:new">
 <g id="pressed-center" transform="translate(46,0)">
  <g id="g4172">
   <rect id="rect4164" width="22" height="22" x="0" y="0" style="opacity:0.001;fill:#000000;fill-opacity:1;fill-rule:nonzero;stroke:none;stroke-width:2;stroke-linecap:round;stroke-linejoin:round;stroke-miterlimit:4;stroke-dasharray:none;stroke-opacity:1"/>
  </g>
  <g id="g4135" transform="translate(-1,-1)">
   <circle id="path4202" cx="12" cy="12" r="8" style="opacity:0.2;fill:#cfd8dc;fill-opacity:1;fill-rule:nonzero;stroke:none;stroke-width:0;stroke-linecap:square;stroke-linejoin:round;stroke-miterlimit:4;stroke-dasharray:none;stroke-dashoffset:478.43673706;stroke-opacity:0.4"/>
   <path style="opacity:1;fill:#cfd8dc;fill-opacity:1;fill-rule:evenodd;stroke:none;stroke-width:2;stroke-linecap:butt;stroke-linejoin:round;stroke-miterlimit:4;stroke-dasharray:none;stroke-dashoffset:478.43673706;stroke-opacity:0.75" id="rect4139" d="M 53 7 L 53 9 L 53 15 L 61 15 L 61 9 L 61 7 L 53 7 z M 55 9 L 59 9 L 59 12 L 59 13 L 55 13 L 55 12 L 55 9 z" transform="translate(-45,1)"/>
  </g>
 </g>
 <g id="hover-center" transform="translate(-23,0)">
  <g id="g4206" transform="translate(46,0)">
   <rect id="rect4208" width="22" height="22" x="0" y="0" style="opacity:0.001;fill:#000000;fill-opacity:1;fill-rule:nonzero;stroke:none;stroke-width:2;stroke-linecap:round;stroke-linejoin:round;stroke-miterlimit:4;stroke-dasharray:none;stroke-opacity:1"/>
  </g>
  <g id="g4210" transform="translate(45,-1)">
   <circle id="circle4212" cx="12" cy="12" r="8" style="opacity:0.1;fill:#cfd8dc;fill-opacity:1;fill-rule:nonzero;stroke:none;stroke-width:0;stroke-linecap:square;stroke-linejoin:round;stroke-miterlimit:4;stroke-dasharray:none;stroke-dashoffset:478.43673706;stroke-opacity:0.4"/>
   <path style="opacity:1;fill:#cfd8dc;fill-opacity:1;fill-rule:evenodd;stroke:none;stroke-width:2;stroke-linecap:butt;stroke-linejoin:round;stroke-miterlimit:4;stroke-dasharray:none;stroke-dashoffset:478.43673706;stroke-opacity:0.75" id="rect4214" d="M 30 7 L 30 9 L 30 15 L 38 15 L 38 9 L 38 7 L 30 7 z M 32 9 L 36 9 L 36 12 L 36 13 L 32 13 L 32 12 L 32 9 z" transform="translate(-22,1)"/>
  </g>
 </g>
 <g id="active-center">
  <rect id="rect4266" width="22" height="22" x="0" y="0" style="opacity:0.001;fill:#000000;fill-opacity:1;fill-rule:nonzero;stroke:none;stroke-width:2;stroke-linecap:round;stroke-linejoin:round;stroke-miterlimit:4;stroke-dasharray:none;stroke-opacity:1"/>
  <path style="opacity:1;fill:#cfd8dc;fill-opacity:1;fill-rule:evenodd;stroke:none;stroke-width:2;stroke-linecap:butt;stroke-linejoin:round;stroke-miterlimit:4;stroke-dasharray:none;stroke-dashoffset:478.43673706;stroke-opacity:0.75" id="path4268" d="M 7 7 L 7 9 L 7 15 L 15 15 L 15 9 L 15 7 L 7 7 z M 9 9 L 13 9 L 13 12 L 13 13 L 9 13 L 9 12 L 9 9 z"/>
 </g>
 <g id="inactive-center" transform="translate(69,0)">
  <rect id="rect4180" width="22" height="22" x="0" y="0" style="opacity:0.001;fill:#000000;fill-opacity:1;fill-rule:nonzero;stroke:none;stroke-width:2;stroke-linecap:round;stroke-linejoin:round;stroke-miterlimit:4;stroke-dasharray:none;stroke-opacity:1"/>
  <path style="opacity:0.3;fill:#cfd8dc;fill-opacity:1;fill-rule:evenodd;stroke:none;stroke-width:2;stroke-linecap:butt;stroke-linejoin:round;stroke-miterlimit:4;stroke-dasharray:none;stroke-dashoffset:478.43673706;stroke-opacity:0.75" id="rect4139-3" d="M 76 7 L 76 9 L 76 15 L 84 15 L 84 9 L 84 7 L 76 7 z M 78 9 L 82 9 L 82 12 L 82 13 L 78 13 L 78 12 L 78 9 z" transform="translate(-69)"/>
 </g>
 <g id="deactivated-center" transform="translate(92,0)">
  <rect id="rect4278" width="22" height="22" x="0" y="0" style="opacity:0.001;fill:#000000;fill-opacity:1;fill-rule:nonzero;stroke:none;stroke-width:2;stroke-linecap:round;stroke-linejoin:round;stroke-miterlimit:4;stroke-dasharray:none;stroke-opacity:1"/>
  <path style="opacity:0.3;fill:#cfd8dc;fill-opacity:1;fill-rule:evenodd;stroke:none;stroke-width:2;stroke-linecap:butt;stroke-linejoin:round;stroke-miterlimit:4;stroke-dasharray:none;stroke-dashoffset:478.43673706;stroke-opacity:0.75" id="path4280" d="M 99 7 L 99 9 L 99 15 L 107 15 L 107 9 L 107 7 L 99 7 z M 101 9 L 105 9 L 105 12 L 105 13 L 101 13 L 101 12 L 101 9 z" transform="translate(-92)"/>
 </g>
</svg>
